<?xml version="1.0" standalone="no"?>
<!DOCTYPE svg PUBLIC "-//W3C//DTD SVG 20010904//EN"
 "http://www.w3.org/TR/2001/REC-SVG-20010904/DTD/svg10.dtd">
<svg version="1.0" xmlns="http://www.w3.org/2000/svg"
 width="410.000000pt" height="443.000000pt" viewBox="0 0 410.000000 443.000000"
 preserveAspectRatio="xMidYMid meet">

<g transform="translate(0.000000,443.000000) scale(0.100000,-0.100000)"
fill="#000000" stroke="none">
<path d="M1559 3966 c-158 -56 -234 -225 -165 -371 70 -151 246 -206 387 -122
160 96 180 319 38 440 -72 62 -177 83 -260 53z"/>
<path d="M1075 3886 c-54 -25 -103 -74 -124 -123 -12 -30 -11 -32 35 -75 48
-44 94 -125 94 -167 0 -20 3 -23 28 -17 70 18 141 18 191 1 40 -13 55 -14 66
-5 12 10 10 19 -13 63 -23 45 -26 64 -27 142 0 50 4 104 9 121 8 30 6 32 -45
58 -69 34 -144 35 -214 2z"/>
<path d="M2033 3898 c-17 -6 -46 -22 -63 -37 -31 -26 -31 -26 -19 -74 15 -63
7 -150 -21 -209 -17 -38 -19 -51 -10 -68 8 -15 17 -19 28 -15 63 26 172 31
222 11 12 -5 18 6 27 44 15 63 63 133 114 167 21 14 39 28 39 31 0 3 -11 24
-24 47 -25 42 -78 85 -129 104 -35 13 -121 13 -164 -1z"/>
<path d="M737 3709 c-124 -30 -206 -143 -194 -269 14 -159 165 -262 320 -219
29 8 37 15 37 33 0 39 59 144 102 180 39 33 40 37 34 77 -8 52 -26 85 -68 128
-58 59 -154 89 -231 70z"/>
<path d="M2401 3708 c-47 -13 -134 -103 -149 -154 -18 -62 -16 -72 32 -119 49
-47 81 -102 91 -157 6 -29 13 -39 37 -47 81 -29 200 2 260 65 92 98 88 266 -8
356 -65 60 -171 83 -263 56z"/>
<path d="M1135 3457 c-148 -57 -215 -207 -151 -342 43 -93 128 -148 227 -149
59 0 139 30 139 52 0 28 45 116 79 154 22 25 31 46 31 70 0 47 -44 132 -88
168 -66 54 -167 74 -237 47z"/>
<path d="M1997 3456 c-85 -31 -146 -96 -169 -179 l-12 -47 46 -44 c51 -49 84
-105 96 -163 7 -35 11 -39 57 -51 99 -24 219 25 269 111 82 139 24 313 -121
367 -62 23 -112 25 -166 6z"/>
<path d="M1460 3405 c0 -3 9 -23 20 -44 11 -22 22 -58 26 -80 4 -23 9 -41 11
-41 2 0 27 7 54 16 49 16 129 15 187 -2 19 -5 22 -3 22 22 0 16 11 53 25 82
l24 52 -184 0 c-102 0 -185 -2 -185 -5z"/>
<path d="M1563 3189 c-67 -26 -127 -90 -147 -160 -20 -66 -20 -82 0 -150 22
-75 91 -142 170 -165 140 -41 285 49 316 196 24 115 -45 237 -158 280 -68 25
-114 25 -181 -1z"/>
<path d="M2380 3178 c0 -42 -20 -96 -54 -146 l-32 -49 47 -21 c73 -34 144
-104 181 -179 27 -55 33 -80 36 -154 l4 -89 43 0 c60 0 189 26 258 51 l59 22
-4 171 c-3 160 -5 175 -29 227 -32 68 -83 120 -152 156 -49 26 -61 28 -204 31
l-153 4 0 -24z"/>
<path d="M562 3169 c-64 -25 -139 -96 -172 -164 -23 -46 -25 -64 -28 -223 l-4
-172 47 -21 c56 -25 212 -59 271 -59 l42 0 4 88 c3 66 10 100 30 144 35 76
107 151 178 186 l58 29 -24 29 c-28 34 -64 124 -64 159 l0 25 -142 -1 c-119 0
-152 -3 -196 -20z"/>
<path d="M1023 2935 c-96 -26 -175 -93 -217 -184 -18 -40 -21 -69 -24 -215 -2
-92 0 -172 5 -177 12 -12 199 -57 268 -64 33 -3 69 -8 81 -10 20 -4 21 1 28
83 11 150 83 266 205 331 l59 31 -33 56 c-19 31 -40 81 -46 110 l-12 54 -131
-1 c-79 0 -152 -6 -183 -14z"/>
<path d="M1965 2924 c-15 -72 -27 -103 -56 -147 -17 -27 -30 -49 -28 -50 2 -1
30 -15 61 -31 117 -58 185 -166 202 -324 l10 -93 65 7 c75 7 189 35 245 58
l37 16 -3 177 c-3 162 -5 182 -26 225 -32 64 -96 126 -162 156 -49 23 -71 26
-197 30 l-142 4 -6 -28z"/>
<path d="M1480 2676 c-30 -7 -70 -20 -88 -30 -52 -27 -112 -93 -140 -155 -24
-52 -27 -69 -30 -223 l-4 -168 28 -11 c16 -6 81 -22 144 -37 96 -21 142 -25
280 -26 175 -1 272 14 373 56 l47 20 0 122 c0 205 -25 292 -104 369 -49 47
-94 71 -164 86 -69 14 -271 13 -342 -3z"/>
</g>
</svg>
