<?xml version="1.0" standalone="no"?>
<!DOCTYPE svg PUBLIC "-//W3C//DTD SVG 20010904//EN"
 "http://www.w3.org/TR/2001/REC-SVG-20010904/DTD/svg10.dtd">
<svg version="1.0" xmlns="http://www.w3.org/2000/svg"
 width="305.000000pt" height="230.000000pt" viewBox="0 0 305.000000 230.000000"
 preserveAspectRatio="xMidYMid meet">

<g transform="translate(0.000000,230.000000) scale(0.100000,-0.100000)"
fill="#000000" stroke="none">
<path d="M915 1951 c-319 -142 -579 -262 -578 -266 1 -4 119 -60 262 -124
l261 -115 0 -337 0 -337 88 -21 c134 -31 265 -51 393 -58 l117 -6 4 -101 c3
-92 7 -108 40 -179 52 -108 119 -177 226 -230 78 -38 91 -42 182 -45 150 -6
249 29 352 126 196 183 205 480 21 673 -32 34 -77 72 -100 86 l-43 25 0 203 0
202 171 77 c94 42 175 76 180 76 5 0 9 -71 9 -157 l0 -158 -37 -20 c-21 -11
-48 -36 -61 -55 -20 -30 -23 -45 -20 -97 3 -52 15 -83 77 -208 40 -81 77 -143
81 -138 20 20 122 232 140 292 30 96 7 168 -65 207 l-35 19 0 178 0 178 46 21
c25 11 42 24 38 28 -8 7 -1162 521 -1167 519 -1 0 -263 -116 -582 -258z m1033
-23 l435 -193 -433 -5 c-398 -5 -434 -6 -444 -22 -8 -13 -8 -23 0 -35 10 -17
46 -18 443 -23 l432 -5 -441 -198 -441 -197 -462 206 c-254 113 -473 212 -487
219 l-25 13 35 16 c228 105 928 416 939 416 7 0 209 -87 449 -192z m-695 -656
l247 -110 248 110 c136 60 262 116 280 123 l32 14 0 -170 0 -170 -22 7 c-13 4
-59 7 -103 7 -179 -1 -343 -102 -421 -260 l-26 -53 -64 0 c-90 0 -246 18 -371
43 l-108 22 -3 287 -2 287 32 -14 c18 -7 144 -63 281 -123z m1346 -100 c17
-19 22 -33 18 -56 -6 -38 -67 -176 -77 -176 -9 0 -69 133 -77 171 -10 51 43
105 92 92 11 -2 31 -16 44 -31z m-530 -189 c25 -8 62 -26 84 -40 l39 -25 -43
-44 -44 -45 -3 30 c-3 31 -4 31 -63 31 l-59 0 0 40 0 40 -40 0 c-40 0 -40 0
-40 -39 0 -36 -3 -40 -34 -51 -60 -20 -80 -52 -84 -136 -5 -82 7 -124 44 -153
l23 -18 -110 -109 c-123 -122 -110 -121 -160 -17 -42 86 -49 177 -21 269 67
222 293 339 511 267z m244 -220 c18 -40 22 -66 22 -153 0 -99 -2 -110 -32
-171 -40 -81 -121 -160 -200 -197 -44 -20 -78 -27 -145 -30 -95 -5 -146 8
-225 54 l-45 26 43 45 c43 43 44 44 47 19 3 -25 7 -26 63 -26 l59 0 0 -40 0
-40 40 0 40 0 0 40 c0 35 3 40 24 40 31 0 70 32 86 69 7 19 11 60 8 107 -3 71
-6 78 -34 103 l-31 26 110 112 110 112 19 -24 c10 -13 29 -46 41 -72z m-413
-33 c0 -62 -3 -80 -14 -80 -19 0 -26 22 -26 85 0 41 4 56 18 64 9 6 18 11 20
11 1 0 2 -36 2 -80z m180 77 c0 -1 -22 -25 -50 -52 l-50 -49 0 52 0 52 50 0
c28 0 50 -1 50 -3z m-60 -312 c0 -63 -7 -85 -26 -85 -11 0 -14 18 -14 80 0 78
1 80 20 70 16 -9 20 -21 20 -65z m-120 -40 l0 -45 -47 0 -47 0 44 45 c24 25
45 45 47 45 2 0 3 -20 3 -45z"/>
</g>
</svg>
