<?xml version="1.0" standalone="no"?>
<!DOCTYPE svg PUBLIC "-//W3C//DTD SVG 20010904//EN"
 "http://www.w3.org/TR/2001/REC-SVG-20010904/DTD/svg10.dtd">
<svg version="1.0" xmlns="http://www.w3.org/2000/svg"
 width="273.000000pt" height="278.000000pt" viewBox="0 0 273.000000 278.000000"
 preserveAspectRatio="xMidYMid meet">

<g transform="translate(0.000000,278.000000) scale(0.100000,-0.100000)"
fill="#000000" stroke="none">
<path d="M1175 2531 c-50 -22 -99 -71 -127 -125 -17 -32 -22 -65 -26 -151 -3
-65 -10 -121 -18 -137 -38 -73 16 -158 99 -158 20 0 25 -6 30 -34 13 -82 75
-162 151 -197 87 -40 219 -17 290 49 34 32 76 116 76 155 0 22 4 27 24 27 36
0 71 15 95 41 25 27 29 95 6 125 -10 13 -14 46 -15 114 0 52 -5 112 -10 132
-16 57 -69 119 -129 150 -53 28 -56 28 -230 28 -149 0 -182 -3 -216 -19z m265
-318 c63 3 123 9 133 13 18 6 19 -1 15 -159 -3 -165 -3 -165 -33 -208 -101
-142 -318 -99 -354 70 -11 51 -16 283 -6 293 3 2 33 1 68 -4 34 -5 114 -7 177
-5z m-320 -148 c0 -36 -10 -42 -44 -29 -16 6 -22 45 -9 57 3 4 17 7 30 7 20 0
23 -5 23 -35z m599 21 c18 -22 -3 -56 -34 -56 -22 0 -25 4 -25 35 0 30 3 35
24 35 13 0 29 -6 35 -14z"/>
<path d="M818 1923 c-164 -140 -273 -332 -307 -544 -11 -68 -7 -89 19 -89 26
0 35 18 48 98 28 171 114 323 261 465 62 59 89 91 85 102 -11 27 -49 16 -106
-32z"/>
<path d="M1867 1963 c-17 -17 -3 -42 48 -81 146 -114 253 -298 293 -502 16
-80 19 -85 42 -85 24 0 25 2 23 61 -4 104 -63 266 -136 374 -100 147 -237 266
-270 233z"/>
<path d="M1293 1635 c-156 -42 -266 -158 -298 -313 -48 -227 102 -443 335
-484 263 -46 509 200 463 465 -28 167 -156 301 -321 336 -68 14 -114 13 -179
-4z m135 -78 c12 -13 31 -48 41 -78 20 -55 42 -188 34 -201 -2 -5 -54 -8 -115
-8 l-111 0 7 70 c3 38 17 99 30 135 38 105 71 128 114 82z m-179 -61 c-11 -33
-25 -97 -31 -143 l-12 -83 -79 0 -79 0 7 33 c20 95 92 194 172 236 21 10 39
18 40 17 1 0 -7 -28 -18 -60z m322 36 c61 -39 115 -104 139 -169 34 -92 33
-94 -57 -91 l-78 3 -8 75 c-5 41 -19 105 -32 143 -12 37 -20 67 -16 67 4 0 27
-13 52 -28z m-353 -405 c6 -46 20 -110 31 -143 12 -32 21 -60 21 -61 0 -2 -18
6 -40 17 -83 42 -155 140 -175 238 l-7 32 79 0 79 0 12 -83z m285 76 c8 -14
-14 -147 -34 -202 -32 -91 -76 -123 -113 -82 -28 31 -65 145 -72 221 l-7 70
111 0 c61 0 113 -3 115 -7z m227 -13 c0 -35 -39 -124 -71 -163 -30 -36 -97
-87 -130 -100 -14 -5 -13 4 7 61 12 36 26 96 29 132 9 94 5 90 90 90 68 0 75
-2 75 -20z"/>
<path d="M372 1208 c-20 -20 -14 -31 38 -83 l51 -50 -72 -5 c-55 -4 -75 -9
-83 -23 -17 -28 17 -47 86 -47 70 0 75 -14 16 -50 -85 -52 -158 -189 -158
-296 l0 -45 94 -44 c61 -28 96 -51 100 -63 4 -11 20 -39 37 -61 86 -120 217
-107 294 29 28 48 37 55 124 96 l94 45 -6 66 c-4 41 -17 89 -35 127 -29 61
-108 150 -143 161 -11 4 -19 13 -19 21 0 10 14 14 58 14 69 0 103 19 86 47 -9
14 -26 19 -83 21 -39 2 -71 4 -71 6 0 2 23 26 51 54 44 44 49 53 39 71 -13 25
-33 27 -50 6 -7 -9 -30 -29 -51 -46 -38 -30 -38 -30 -65 -12 -38 25 -129 24
-171 -2 l-33 -19 -48 47 c-50 50 -61 54 -80 35z m317 -134 c17 -14 31 -33 31
-42 0 -15 -13 -17 -100 -17 -105 0 -118 7 -87 46 36 46 109 52 156 13z m48
-325 l45 -22 -5 -47 c-3 -26 -15 -73 -26 -105 -63 -179 -164 -203 -239 -55
-18 36 -38 95 -44 132 -11 63 -11 69 7 83 62 47 180 54 262 14z"/>
<path d="M2041 1112 c-18 -17 -32 -47 -40 -82 -7 -30 -14 -60 -16 -67 -3 -8
-26 -4 -78 12 -83 27 -114 24 -123 -11 -16 -63 35 -149 121 -206 l65 -42 0
-61 c0 -73 24 -129 73 -172 78 -68 186 -68 264 0 49 43 73 99 73 172 l0 61 65
42 c86 57 137 143 121 206 -9 35 -40 38 -123 11 -52 -16 -75 -20 -78 -12 -2 7
-9 37 -16 67 -8 35 -22 65 -40 82 -27 27 -31 28 -134 28 -103 0 -107 -1 -134
-28z m200 -426 l69 10 0 -49 c0 -87 -54 -147 -133 -147 -83 0 -137 58 -137
146 l0 50 66 -10 c42 -6 90 -6 135 0z"/>
<path d="M1011 476 c-21 -25 -7 -42 62 -69 196 -79 485 -74 665 11 28 13 37
23 37 42 0 32 -23 31 -121 -4 -160 -57 -362 -58 -525 0 -41 14 -81 28 -90 30
-8 3 -21 -2 -28 -10z"/>
</g>
</svg>
